<?xml version="1.0" encoding="UTF-8"?>
<svg width="541.84mm" height="520.96mm" version="1.1" viewBox="0 0 1919.9 1845.9209" xmlns="http://www.w3.org/2000/svg">
 <g transform="translate(311.36 1053.3)">
  <g transform="matrix(3.5469 0 0 3.5469 2430.6 -1307.5)">
   <path d="m-502.71 92.09a250 250 0 0 0 -250 250 250 250 0 0 0 250 250 250 250 0 0 0 250 -250 250 250 0 0 0 -18.828 -94.865 35.066 39.473 42.506 0 1 -33.797 -6.6191 35.066 39.473 42.506 0 1 -8.0762 -38.041 58.216 65.533 42.506 0 1 -74.283 -2.0957 58.216 65.533 42.506 0 1 -9.5469 -72.004 35.066 39.473 42.506 0 1 -36.594 -5.6348 35.066 39.473 42.506 0 1 -10.412 -23.52 250 250 0 0 0 -58.463 -7.2207zm0 168.9a87.5 81.098 0 0 1 87.5 81.096 87.5 81.098 0 0 1 -87.5 81.098 87.5 81.098 0 0 1 -87.5 -81.098 87.5 81.098 0 0 1 87.5 -81.096z" fill="#ffb380"/>
   <path d="m-503.63 71.66c-1.4891-0.0013-2.9773 0.01021-4.4648 0.0332a12.501 12.501 0 0 0 -0.0293 0c-86.382 1.5374-170.32 46.542-218.36 118.7-29.46 43.406-45.571 95.291-46.557 147.56a12.501 12.501 0 0 0 -2e-3 0.23632c0 12.121 1.7786 26.093 7.2012 38.584 2.7113 6.2453 6.3936 12.228 11.898 17.002 5.5048 4.774 13.149 8.0234 21.314 8.0234 7.5689 0 15.075-2.3765 20.33-7.1992s7.7162-10.984 9.0508-16.674c2.6691-11.379 1.905-22.852 2.6797-33.408s2.8184-19.244 7.4375-24.877c4.6191-5.6327 12.505-10.419 31.439-10.92 11.489-0.30421 15.592 2.8804 19.781 9.1777 4.1891 6.2973 6.9483 16.958 8.3633 28.58s1.6616 23.848 2.9824 34.342c0.66041 5.2467 1.4026 10.066 3.8262 15.152s9.2678 11.428 16.936 11.428c10.47 0 19.608-2.3914 26.561-7.7226 6.9521-5.3313 10.744-13.009 12.512-20.248 3.491-14.293 1.4151-28.659 1.3613-40.738 1.3545-18.001 11.248-35.679 26.402-44.963a12.501 12.501 0 0 0 0.41602 -0.26563c11.634-7.7755 26.09-11.964 40.398-11.967a12.501 12.501 0 0 0 0.23828 -2e-3c29.514-0.56892 60.313 21.976 65.369 51.004a12.501 12.501 0 0 0 0.0332 0.18554c0.24993 1.3171 1.4034 10.31 1.457 11.172 0.0445 17.722 1.7314 35.465 6.7949 50.311 2.566 7.5233 5.9902 14.447 11.416 20.1 5.4258 5.6529 13.515 9.7129 22.133 9.7129 9.9801 0 19.16-2.954 25.893-8.6074 6.7325-5.6534 10.619-13.263 12.916-20.988 4.5948-15.45 3.961-32.659 3.7656-49.162s0.0595-32.283 2.9648-41.57c1.4527-4.6437 3.2646-7.3642 5.2871-9.0078 2.0226-1.6436 4.682-2.8828 10.471-2.8828 13.615 0 17.408 3.6774 21.338 11.238 3.9297 7.5609 5.7359 20.471 6.416 34.389s0.36006 28.498 3.2988 41.658c1.4694 6.5802 3.7885 13.161 8.8691 18.73 5.0807 5.5693 13.22 9.0195 21.375 9.0195 8.5479 0 16.478-3.5303 22.035-8.5938 5.5567-5.0634 9.1271-11.309 11.715-17.699 5.1754-12.781 6.6113-26.604 6.6113-37.363a12.501 12.501 0 0 0 -2e-3 -0.21093c-0.60245-35.567-8.3046-72.761-22.557-106.8a35.066 44.782 42.506 0 1 -4.4512 5.5801 35.066 44.782 42.506 0 1 -56.109 9.3203 35.066 44.782 42.506 0 1 -6.0234 -40.279 58.216 74.347 42.506 0 1 -78.705 2.7266 58.216 74.347 42.506 0 1 -5.3086 -76.629 35.066 44.782 42.506 0 1 -38.463 -3.5938 35.066 44.782 42.506 0 1 2.4551 -54.402c-10.377-2.4272-20.912-4.2436-31.557-5.3691-10.343-1.1979-20.751-1.802-31.158-1.8105z" color="#000000" color-rendering="auto" fill="#3f3131" image-rendering="auto" shape-rendering="auto" solid-color="#000000" style="block-progression:tb;isolation:auto;mix-blend-mode:normal;text-decoration-color:#000000;text-decoration-line:none;text-decoration-style:solid;text-indent:0;text-transform:none;white-space:normal"/>
   <path d="m-503.64 77.089c-1.4204-0.0012-2.8414 0.0093-4.2617 0.03125-82.178 1.4626-162.6 44.62-208.21 113.18-28.059 41.327-43.483 90.949-44.424 140.81 0 21.47 7.139 51.109 27.914 51.109 42.913 0-14.195-90.829 70.607-93.074 59.809-1.5836 31.806 98.676 52.219 98.676 34.588 0 27.916-30.262 27.916-56.711 1.5157-21.999 13.292-43.419 32.391-55.119 13.848-9.2555 30.633-14.071 47.342-14.074 35.749-0.68911 71.657 25.382 77.924 61.357 0.49586 2.6131 1.5037 10.178 1.6582 12.785 0 34.192 7.0934 68.34 27.861 68.34 62.097 0-2.3296-132.22 61.297-132.22 68.463 0 18.409 115.04 61.297 115.04 21.955 0 27.861-32.239 27.861-51.156-0.5395-31.851-7.1706-65.34-19.262-96.285a35.066 49.399 42.506 0 1 -0.42773 0.5 35.066 49.399 42.506 0 1 -59.229 12.725 35.066 49.399 42.506 0 1 -4.2363 -42.229 58.216 82.012 42.506 0 1 -82.551 6.9219 58.216 82.012 42.506 0 1 -1.625 -80.648 35.066 49.399 42.506 0 1 -40.088 -1.8203 35.066 49.399 42.506 0 1 1.6074 -52.67c-7.8646-1.6287-15.81-2.8948-23.816-3.7383-9.8769-1.1451-19.819-1.7203-29.762-1.7285zm204.92 102.4a58.216 82.012 42.506 0 1 -0.0547 0.0957 35.066 49.399 42.506 0 1 0.13477 -0.0723c-0.0268-8e-3 -0.0533-0.0159-0.0801-0.0234z" fill="#6c5353"/>
   <path d="m-333.41 291.75c-5.7887 0-8.4482 1.2392-10.471 2.8828-2.0226 1.6436-3.8344 4.3641-5.2871 9.0078-2.9053 9.2875-3.1602 25.067-2.9648 41.57s0.82921 33.712-3.7656 49.162c-2.2974 7.7248-6.1835 15.335-12.916 20.988-5.8154 4.8833-13.459 7.7464-21.865 8.4375-22.549 28.569-55.817 48.875-92.191 52.723-49.566 6.9439-101.41-14.519-132.69-53.326-23.808-28.721-34.056-68.213-26.135-104.79 9e-3 -0.0471 0.0219-0.0935 0.0312-0.14062-0.08-0.12508-0.15723-0.25903-0.23828-0.38086-4.1891-6.2973-8.292-9.482-19.781-9.1777-18.935 0.50136-26.82 5.2872-31.439 10.92-2.4345 2.9687-4.1468 6.7928-5.3418 11.285-3.3732 68.731 30.332 139.52 89.596 176.11 62.889 40.39 149.77 42.027 212.44-8e-3 63.346-40.816 100.47-120.26 87.637-194.73-0.87969-3.5925-1.9563-6.7553-3.2793-9.3008-3.9297-7.5609-7.7227-11.238-21.338-11.238z" fill="#f7f7f7" opacity=".291"/>
   <path d="m-500.52 146.04c-1.3644-0.013-2.7291-0.0114-4.0938 6e-3 -86.448-0.34328-168.73 64.412-188.61 148.63 13.957-6.8098 30.943-7.7544 45.963-4.8594 4.5 1.2849 8.5328 3.3665 12.113 6.0293 15.289-39.614 48.738-72.615 90.467-82.748 15.173-4.1571 30.89-6.4197 46.633-6.3438 56.461-0.0751 109.64 39.466 129.13 91.752 0.67238-2.3062 1.4416-4.5992 2.3535-6.873 5.5084-12.733 18.938-20.789 32.695-20.516 4.4738-0.2258 8.9705 0.29468 13.297 1.4531a35.066 53.092 42.506 0 1 -9.2422 -5.2539 35.066 53.092 42.506 0 1 -7.416 -29.982c-1.5657-2.464-3.1746-4.9009-4.8457-7.2949a58.216 88.144 42.506 0 1 -76.174 3.7695 58.216 88.144 42.506 0 1 -5.3184 -71.146c-5.4569-2.3624-11.034-4.4737-16.73-6.2812-0.27886-0.0947-0.56053-0.18196-0.83984-0.27539a35.066 53.092 42.506 0 1 -13.881 -4.0898c-14.853-3.7829-30.162-5.8325-45.502-5.9785zm179.95 126.53c0.42349 0.11339 0.84758 0.22589 1.2676 0.35156-6e-3 -0.0169-0.0131-0.0338-0.0195-0.0508a35.066 53.092 42.506 0 1 -1.248 -0.30078z" fill="#f7f7f7" opacity=".508"/>
   <rect transform="matrix(.86603 -.5 .5 .86603 0 0)" x="-784.44" y="-129.2" width="54.054" height="11.314" ry="5.6569" fill="#f60"/>
   <rect transform="matrix(.86603 -.5 .5 .86603 0 0)" x="-678.47" y="-174.16" width="54.054" height="11.314" ry="5.6569" fill="#0f0"/>
   <rect transform="matrix(.86603 -.5 .5 .86603 0 0)" x="-572.18" y="-171.58" width="54.054" height="11.314" ry="5.6569" fill="#f60"/>
   <rect transform="matrix(.86603 -.5 .5 .86603 0 0)" x="-689.01" y="-51.243" width="54.054" height="11.314" ry="5.6569" fill="#0f0"/>
   <rect transform="matrix(.86603 -.5 .5 .86603 0 0)" x="-573.26" y="-48.096" width="54.054" height="11.314" ry="5.6569" fill="#0f0"/>
   <rect transform="matrix(.86603 -.5 .5 .86603 0 0)" x="-526.09" y="73.851" width="54.054" height="11.314" ry="5.6569" fill="#2a7fff"/>
   <rect transform="matrix(.86603 -.5 .5 .86603 0 0)" x="-410.95" y="97.869" width="54.054" height="11.314" ry="5.6569" fill="#f60"/>
   <rect transform="matrix(-.78321 -.62175 .62175 -.78321 0 0)" x="321.29" y="-598.4" width="54.054" height="11.314" ry="5.6569" fill="#2a7fff"/>
   <rect transform="matrix(-.78321 -.62175 .62175 -.78321 0 0)" x="291.87" y="-526.29" width="54.054" height="11.314" ry="5.6569" fill="#f60"/>
   <rect transform="matrix(-.78321 -.62175 .62175 -.78321 0 0)" x="251.14" y="-443.39" width="54.054" height="11.314" ry="5.6569" fill="#2a7fff"/>
   <rect transform="matrix(-.78321 -.62175 .62175 -.78321 0 0)" x="146.55" y="-470.51" width="54.054" height="11.314" ry="5.6569" fill="#f60"/>
  </g>
 </g>
</svg>
